<svg id="Calque_1" data-name="Calque 1" xmlns="http://www.w3.org/2000/svg" viewBox="0 0 64 64"><defs><style>.cls-1{fill:#f9b605;}.cls-2{fill:#00487d;}</style></defs><path class="cls-1" d="M50.32,7.09a7.8,7.8,0,1,0,7.79,7.8A7.8,7.8,0,0,0,50.32,7.09Zm3.48,8.79H51.31c0,.73,0,1.41,0,2.08a4.1,4.1,0,0,1-.06.86.88.88,0,0,1-1,.74.85.85,0,0,1-.92-.78c-.06-.64-.06-1.28-.07-1.92,0-.29,0-.58,0-1H46.88c-.82,0-1.22-.33-1.24-1s.37-1,1.24-1l2.44,0c0-.62,0-1.81,0-2.43,0-.79.41-1.22,1-1.22s1,.42,1,1.23c0,.55,0,2.27,0,2.47.49,0,2,0,2.57,0s1.16.43,1.14,1S54.52,15.87,53.8,15.88Z"/><path class="cls-2" d="M40,40.5h0a5.35,5.35,0,0,0-1.85-1.63,5.86,5.86,0,0,0,1.14-1,3.92,3.92,0,0,0,1-2.64,5,5,0,0,0-.75-2.67,5.22,5.22,0,0,0-2-1.88A5.86,5.86,0,0,0,34.59,30a6.58,6.58,0,0,0-3.05.7,5.51,5.51,0,0,0-2.2,2,5.13,5.13,0,0,0-.82,2.81A1.84,1.84,0,0,0,29,36.73a1.65,1.65,0,0,0,2.51,0A2,2,0,0,0,32,35.38a1.64,1.64,0,0,1,.32-1,2.7,2.7,0,0,1,1-.77,3.23,3.23,0,0,1,1.4-.3,2.17,2.17,0,0,1,1.55.56,1.73,1.73,0,0,1,.57,1.32,1.72,1.72,0,0,1-.3,1,2.22,2.22,0,0,1-.81.74,2,2,0,0,1-1,.28,1.85,1.85,0,0,0-1.31,3.14,1.73,1.73,0,0,0,1.31.55,2.49,2.49,0,0,1,1.34.38,2.66,2.66,0,0,1,1,1,3.25,3.25,0,0,1,.36,1.52,2.62,2.62,0,0,1-.76,2,3.05,3.05,0,0,1-2.15.72,3.28,3.28,0,0,1-1.62-.41,3.23,3.23,0,0,1-1.16-1.1,2.88,2.88,0,0,1-.41-1.49,1.94,1.94,0,0,0-.46-1.29,1.64,1.64,0,0,0-1.26-.57,1.62,1.62,0,0,0-1.25.57,1.89,1.89,0,0,0-.46,1.29,6.12,6.12,0,0,0,.88,3.25,6.25,6.25,0,0,0,2.42,2.28,7.23,7.23,0,0,0,3.47.83,6.64,6.64,0,0,0,3.17-.78A6.19,6.19,0,0,0,40.07,47,5.72,5.72,0,0,0,41,43.88,5.83,5.83,0,0,0,40,40.5Z"/><path class="cls-2" d="M22.84,51.17h-11V31a1.76,1.76,0,0,0-1.78-1.78A1.76,1.76,0,0,0,8.34,31V53a1.74,1.74,0,0,0,.5,1.26,1.65,1.65,0,0,0,1.26.52H22.84A1.76,1.76,0,0,0,24.63,53a1.7,1.7,0,0,0-.52-1.27A1.74,1.74,0,0,0,22.84,51.17Z"/><path class="cls-1" d="M47,26.38A3.14,3.14,0,0,0,46.58,25a4.31,4.31,0,0,1-.42-1.27l0-.09-.08,0a9.63,9.63,0,0,1-2.58-1.84l-.07-.07-.09,0h-.13l-12.5,0H25.6a1.34,1.34,0,0,0-1,.29,1.16,1.16,0,0,0,0,1.5,1.61,1.61,0,0,0,1.15.32h.13l17.42,0a2.06,2.06,0,0,1,.86.2,2.18,2.18,0,0,1,.16.83L28,24.83H25.52a2,2,0,0,1-2-1.71,2.65,2.65,0,0,1,.25-1.76A1.66,1.66,0,0,1,25,20.68H42.54l-.2-.29a9.76,9.76,0,0,1-.94-1.7l0-.11h-16c-2.29,0-4,1.86-4,4.4V49.71h1.47a3,3,0,0,1,.6,0c0-6.36,0-13,0-18.39V26.55a7.91,7.91,0,0,0,2.77.42c.41,0,.83,0,1.23,0s.84,0,1.26,0h.08c1.92,0,4,0,6.7,0h9.39V53H26.09a3.18,3.18,0,0,1-.79,2.1H45.44c1.22,0,1.54-.32,1.54-1.54V50.08C47,42.32,47,34.29,47,26.38Z"/></svg>