<svg id="Calque_1" data-name="Calque 1" xmlns="http://www.w3.org/2000/svg" viewBox="0 0 419.39 283.46"><defs><style>.cls-1{fill:#fff;}</style></defs><path class="cls-1" d="M136.64,102.39H102.89c-3.5,0-6-2.21-6-5.37-.08-3.38,2-5.35,5.87-5.36q34.07,0,68.14,0c3.88,0,5.95,2,5.88,5.35-.06,3.14-2.55,5.38-6,5.38Z"/><path class="cls-1" d="M117.47,106.9q17.55,0,35.08,0c3.39,0,5.68,2.12,5.76,5.26s-1.91,5.2-5.42,5.2q-35.4.07-70.81,0c-3.52,0-5.56-2-5.54-5.1,0-3.68,1.84-5.37,5.85-5.37Q99.94,106.88,117.47,106.9Z"/><path class="cls-1" d="M105.5,122.65h31.8c4.22,0,6.65,2,6.61,5.51,0,3.27-2.41,5.31-6.5,5.32q-32.13,0-64.24,0c-4,0-6.43-2.11-6.44-5.38,0-3.45,2.41-5.45,6.65-5.45Z"/><path class="cls-1" d="M108.23,149.26c-7.49,0-13.2,0-20.66,0-3.76,0-6.13-2.07-6.16-5.27s2.15-5.12,6.16-5.13q20.82,0,41.65,0c3.78,0,6.37,2.19,6.26,5.13-.12,3.16-2.58,5.26-6.26,5.28C122.22,149.28,115.23,149.26,108.23,149.26Z"/><path class="cls-1" d="M115.45,164.67c-3.93,0-7.86.05-11.79,0-3.48-.06-5.29-1.89-5.31-5.21s1.78-5.14,5.33-5.17q11.63-.09,23.26,0c3.38,0,5.56,2.19,5.46,5.16a5.33,5.33,0,0,1-5.48,5.22C123.09,164.7,119.27,164.67,115.45,164.67Z"/><path class="cls-1" d="M118.07,180.38c-3.41-.08-6.8-2-6.8-5.44,0-4.07,3.45-5.45,6.69-5.4,2.88,0,5.67,0,8.49,0a5.14,5.14,0,0,1,4.94,5.31c0,2.81-1.84,5.53-5.15,5.53Z"/><path class="cls-1" d="M131.69,184.48a4.48,4.48,0,0,1,4.54,4.81c0,2.88-1.69,5.41-4.82,5.41-2.46,0-3.76,0-6.2,0a5.06,5.06,0,0,1-5.16-5.09c0-3.26,2.11-5.25,5.41-5.25Z"/><circle class="cls-1" cx="137.01" cy="202.55" r="5.19"/><path class="cls-1" d="M319.77,48.83a26,26,0,1,0,26,26A26,26,0,0,0,319.77,48.83ZM331.36,78.1c-2.64,0-5.28,0-8.3,0,0,2.43,0,4.69,0,6.94a15,15,0,0,1-.22,2.85,2.94,2.94,0,0,1-3.2,2.48,2.85,2.85,0,0,1-3.06-2.62c-.21-2.12-.19-4.26-.24-6.4,0-1,0-1.9,0-3.25-2.88,0-5.45,0-8,0-2.72,0-4.07-1.09-4.13-3.23s1.23-3.35,4.14-3.41c2,0,6.18-.1,8.12-.1,0-2.06-.17-6-.1-8.1.09-2.62,1.34-4.06,3.41-4.06s3.25,1.41,3.3,4.1c0,1.84-.05,7.57-.1,8.23,1.64-.05,6.65-.12,8.57-.05,2.41.08,3.87,1.42,3.82,3.38S333.77,78.07,331.36,78.1Z"/><path class="cls-1" d="M336.76,183a3.05,3.05,0,0,1-3.05-3.06V137.69a3.05,3.05,0,1,1,6.1,0V179.9A3.05,3.05,0,0,1,336.76,183Z"/><path class="cls-1" d="M321,202.81a3.06,3.06,0,0,1-3.05-3.05V118.31a3.06,3.06,0,1,1,6.11,0v81.45A3.06,3.06,0,0,1,321,202.81Z"/><path class="cls-1" d="M285.26,160.15h0a17.75,17.75,0,0,0-6.15-5.42,20.55,20.55,0,0,0,3.78-3.42,13.09,13.09,0,0,0,3.21-8.79,16.46,16.46,0,0,0-2.51-8.9,17.59,17.59,0,0,0-6.8-6.27,19.8,19.8,0,0,0-9.41-2.28,22.24,22.24,0,0,0-10.19,2.34,18.66,18.66,0,0,0-7.33,6.54,17,17,0,0,0-2.72,9.37,6.2,6.2,0,0,0,1.56,4.28,5.55,5.55,0,0,0,8.36-.14,6.64,6.64,0,0,0,1.51-4.38,5.29,5.29,0,0,1,1.08-3.25,8.43,8.43,0,0,1,3.22-2.57,10.79,10.79,0,0,1,4.67-1,7.24,7.24,0,0,1,5.14,1.84,6,6,0,0,1,.93,7.67,7.51,7.51,0,0,1-2.71,2.48,6.85,6.85,0,0,1-3.36.91,6,6,0,0,0-6.12,6.12,6.08,6.08,0,0,0,1.73,4.37,5.88,5.88,0,0,0,4.39,1.82,8.37,8.37,0,0,1,4.47,1.25,8.87,8.87,0,0,1,3.21,3.51,10.9,10.9,0,0,1,1.2,5.08,8.64,8.64,0,0,1-2.53,6.64,10.17,10.17,0,0,1-7.15,2.41,10.82,10.82,0,0,1-5.42-1.38,10.27,10.27,0,0,1-3.84-3.67,9.3,9.3,0,0,1-1.38-5,6.36,6.36,0,0,0-1.54-4.29,5.55,5.55,0,0,0-8.36,0,6.35,6.35,0,0,0-1.53,4.29,20.56,20.56,0,0,0,2.93,10.84,20.81,20.81,0,0,0,8.07,7.6,24.07,24.07,0,0,0,11.55,2.76A22.25,22.25,0,0,0,277.79,189a20.54,20.54,0,0,0,7.83-7.22,19,19,0,0,0,2.95-10.35A19.35,19.35,0,0,0,285.26,160.15Z"/><path class="cls-1" d="M228.22,195.7H191.69V128.52a5.86,5.86,0,0,0-5.95-5.94,5.64,5.64,0,0,0-4.12,1.71,5.79,5.79,0,0,0-1.72,4.23v73.13a5.87,5.87,0,0,0,1.66,4.22,5.57,5.57,0,0,0,4.18,1.73h42.48a6,6,0,1,0,0-11.9Z"/><path class="cls-1" d="M308.6,113.09a10.11,10.11,0,0,0-1.28-4.64,13.94,13.94,0,0,1-1.42-4.22l-.06-.31-.27-.13A32.29,32.29,0,0,1,297,97.67l-.23-.23-.32.06a2.27,2.27,0,0,1-.41,0c-10-.06-30.4-.07-41.65-.07h-17c-1.46,0-2.52,0-3.47,1A3.35,3.35,0,0,0,233,101a3.39,3.39,0,0,0,.9,2.5c1,1,2.49,1.06,3.82,1.06h.44l58.05-.09a7.47,7.47,0,0,1,2.85.66,7.27,7.27,0,0,1,.55,2.78c-3,0-33.45.07-54.29.07h-8.19c-4.8,0-6.3-4-6.72-5.7a9,9,0,0,1,.85-5.88,5.45,5.45,0,0,1,4-2.25c.6,0,1.21,0,1.73,0h56.86l-.66-1a32.58,32.58,0,0,1-3.12-5.66l-.16-.37H250.26c-4.57,0-9.18,0-13.75,0-7.64,0-13.19,6.2-13.19,14.65v89.09h4.9a11.67,11.67,0,0,1,2,.17c0-21.18,0-43.37,0-61.27V113.65a26.61,26.61,0,0,0,9.26,1.4c1.37,0,2.75-.06,4.08-.11s2.81-.1,4.21-.1H248c6.41,0,13.51.08,22.34.08l12.92,0h18.38v86.9H239.05a10.67,10.67,0,0,1-2.65,7l.43,0h66.69c4.07,0,5.12-1.06,5.13-5.12V192.05C308.65,166.2,308.65,139.46,308.6,113.09Z"/></svg>