<svg id="Calque_1" data-name="Calque 1" xmlns="http://www.w3.org/2000/svg" viewBox="0 0 419.39 283.46"><defs><style>.cls-1{fill:#fff;}</style></defs><path class="cls-1" d="M147.81,204.86a1,1,0,0,1-.29-.74V190.58a1,1,0,0,1,.3-.74,1,1,0,0,1,.72-.3,1,1,0,0,1,.74.3,1,1,0,0,1,.3.74v12.5h7.24a1,1,0,0,1,.74.3,1,1,0,0,1,.3.74,1,1,0,0,1-1,1h-8.28A1,1,0,0,1,147.81,204.86Z"/><path class="cls-1" d="M168.72,200.15a.93.93,0,0,1-.66.25h-7.6a3.56,3.56,0,0,0,1.27,2.26,4,4,0,0,0,2.57.86,4.07,4.07,0,0,0,1.25-.22,4,4,0,0,0,1.07-.54,1,1,0,0,1,.66-.22.84.84,0,0,1,.6.2.86.86,0,0,1,.36.68.71.71,0,0,1-.32.6,5.6,5.6,0,0,1-1.69.88,6.24,6.24,0,0,1-1.93.34,6.09,6.09,0,0,1-2.94-.71,5.2,5.2,0,0,1-2-2,5.58,5.58,0,0,1-.73-2.86,5.89,5.89,0,0,1,.69-2.87,5,5,0,0,1,1.92-2,5.41,5.41,0,0,1,2.79-.71,5,5,0,0,1,2.66.68,4.41,4.41,0,0,1,1.72,1.9,6.24,6.24,0,0,1,.6,2.8A.86.86,0,0,1,168.72,200.15Zm-7.09-3.49a3.55,3.55,0,0,0-1.15,2.14h6.66a3.5,3.5,0,0,0-1-2.14,2.91,2.91,0,0,0-2.14-.8A3.44,3.44,0,0,0,161.63,196.66Z"/><path class="cls-1" d="M172,204.82a4.92,4.92,0,0,1-1.88-1.1.87.87,0,0,1-.26-.62.92.92,0,0,1,.4-.78,1.19,1.19,0,0,1,.7-.28,1.06,1.06,0,0,1,.76.36,3.07,3.07,0,0,0,1.14.73,4.4,4.4,0,0,0,1.62.31,3.47,3.47,0,0,0,1.77-.38,1.17,1.17,0,0,0,.63-1,1.2,1.2,0,0,0-.62-1,5.77,5.77,0,0,0-2.1-.69q-3.84-.75-3.84-3.16a2.44,2.44,0,0,1,.58-1.66,3.41,3.41,0,0,1,1.52-1,5.8,5.8,0,0,1,2-.34,6.12,6.12,0,0,1,2.33.42,3.9,3.9,0,0,1,1.63,1.16,1,1,0,0,1,.26.64.81.81,0,0,1-.34.62,1,1,0,0,1-.56.16,1.38,1.38,0,0,1-.94-.38,2.85,2.85,0,0,0-1.06-.65,4.17,4.17,0,0,0-1.36-.19,3.19,3.19,0,0,0-1.51.31,1,1,0,0,0-.59.87,1.13,1.13,0,0,0,.2.67,1.84,1.84,0,0,0,.76.5,10.15,10.15,0,0,0,1.62.45,7,7,0,0,1,3.09,1.22,2.52,2.52,0,0,1,.91,2,3,3,0,0,1-.5,1.67,3.31,3.31,0,0,1-1.47,1.18,5.84,5.84,0,0,1-2.33.43A7.68,7.68,0,0,1,172,204.82Z"/><path class="cls-1" d="M181.86,204.82a4.92,4.92,0,0,1-1.88-1.1.87.87,0,0,1-.26-.62.92.92,0,0,1,.4-.78,1.21,1.21,0,0,1,.7-.28,1.06,1.06,0,0,1,.76.36,3.16,3.16,0,0,0,1.14.73,4.4,4.4,0,0,0,1.62.31,3.47,3.47,0,0,0,1.77-.38,1.17,1.17,0,0,0,.63-1,1.18,1.18,0,0,0-.62-1,5.77,5.77,0,0,0-2.1-.69q-3.84-.75-3.84-3.16a2.49,2.49,0,0,1,.58-1.66,3.41,3.41,0,0,1,1.52-1,5.76,5.76,0,0,1,2-.34,6.12,6.12,0,0,1,2.33.42,3.9,3.9,0,0,1,1.63,1.16,1,1,0,0,1,.26.64.81.81,0,0,1-.34.62,1,1,0,0,1-.56.16,1.38,1.38,0,0,1-.94-.38,2.85,2.85,0,0,0-1.06-.65,4.17,4.17,0,0,0-1.36-.19,3.22,3.22,0,0,0-1.51.31,1,1,0,0,0-.59.87,1.13,1.13,0,0,0,.2.67,1.84,1.84,0,0,0,.76.5,10.15,10.15,0,0,0,1.62.45,6.92,6.92,0,0,1,3.09,1.22,2.52,2.52,0,0,1,.91,2,3,3,0,0,1-.5,1.67,3.31,3.31,0,0,1-1.47,1.18,5.84,5.84,0,0,1-2.33.43A7.68,7.68,0,0,1,181.86,204.82Z"/><path class="cls-1" d="M192.4,204.53a5.08,5.08,0,0,1-2-2,6.23,6.23,0,0,1,0-5.74,5,5,0,0,1,2-2,5.67,5.67,0,0,1,2.86-.71,5.56,5.56,0,0,1,2.83.71,5.08,5.08,0,0,1,2,2,5.7,5.7,0,0,1,.71,2.88,5.77,5.77,0,0,1-.7,2.86,5.06,5.06,0,0,1-1.95,2,5.68,5.68,0,0,1-2.85.71A5.78,5.78,0,0,1,192.4,204.53Zm4.69-1.57a3.36,3.36,0,0,0,1.26-1.33,4.39,4.39,0,0,0,0-3.87,3.26,3.26,0,0,0-1.26-1.34,3.73,3.73,0,0,0-3.66,0,3.35,3.35,0,0,0-1.27,1.34,4.3,4.3,0,0,0,0,3.87,3.46,3.46,0,0,0,1.27,1.33,3.73,3.73,0,0,0,3.66,0Z"/><path class="cls-1" d="M210.72,194.72a4.15,4.15,0,0,1,1.72,1.75,5.67,5.67,0,0,1,.62,2.77v4.92a1,1,0,0,1-.29.73,1.06,1.06,0,0,1-1.46,0,1,1,0,0,1-.29-.73v-4.92a3.23,3.23,0,0,0-.87-2.45,3.18,3.18,0,0,0-2.31-.83,3.37,3.37,0,0,0-1.53.34,2.64,2.64,0,0,0-1.08.92,2.26,2.26,0,0,0-.39,1.3v5.64a1,1,0,0,1-.28.73,1,1,0,0,1-.74.29,1,1,0,0,1-1-1v-8.92a1,1,0,0,1,.29-.74,1,1,0,0,1,.73-.28,1,1,0,0,1,1,1v.22a4.44,4.44,0,0,1,1.52-1,4.91,4.91,0,0,1,1.88-.35A5.08,5.08,0,0,1,210.72,194.72Z"/><path class="cls-1" d="M216.86,204.82a4.92,4.92,0,0,1-1.88-1.1.87.87,0,0,1-.26-.62.92.92,0,0,1,.4-.78,1.21,1.21,0,0,1,.7-.28,1.06,1.06,0,0,1,.76.36,3.16,3.16,0,0,0,1.14.73,4.4,4.4,0,0,0,1.62.31,3.47,3.47,0,0,0,1.77-.38,1.17,1.17,0,0,0,.63-1,1.18,1.18,0,0,0-.62-1,5.77,5.77,0,0,0-2.1-.69q-3.84-.75-3.84-3.16a2.49,2.49,0,0,1,.58-1.66,3.41,3.41,0,0,1,1.52-1,5.76,5.76,0,0,1,2-.34,6.12,6.12,0,0,1,2.33.42,3.9,3.9,0,0,1,1.63,1.16,1,1,0,0,1,.26.64.81.81,0,0,1-.34.62,1,1,0,0,1-.56.16,1.38,1.38,0,0,1-.94-.38,2.85,2.85,0,0,0-1.06-.65,4.17,4.17,0,0,0-1.36-.19,3.22,3.22,0,0,0-1.51.31,1,1,0,0,0-.59.87,1.13,1.13,0,0,0,.2.67,1.84,1.84,0,0,0,.76.5,10.15,10.15,0,0,0,1.62.45,6.92,6.92,0,0,1,3.09,1.22,2.52,2.52,0,0,1,.91,2,3,3,0,0,1-.5,1.67,3.31,3.31,0,0,1-1.47,1.18,5.84,5.84,0,0,1-2.33.43A7.68,7.68,0,0,1,216.86,204.82Z"/><path class="cls-1" d="M230.65,204.86a1,1,0,0,1-.29-.74V190.58a1,1,0,0,1,.3-.74,1,1,0,0,1,.72-.3,1,1,0,0,1,1,1v12.5h7.24a1,1,0,0,1,1,1,1,1,0,0,1-.3.74,1,1,0,0,1-.74.3h-8.28A1,1,0,0,1,230.65,204.86Z"/><path class="cls-1" d="M251.56,200.15a.93.93,0,0,1-.66.25h-7.6a3.56,3.56,0,0,0,1.27,2.26,4,4,0,0,0,2.57.86,4.07,4.07,0,0,0,1.25-.22,4,4,0,0,0,1.07-.54,1,1,0,0,1,.66-.22.82.82,0,0,1,.6.2.86.86,0,0,1,.36.68.73.73,0,0,1-.32.6,5.6,5.6,0,0,1-1.69.88,6.24,6.24,0,0,1-1.93.34,6.09,6.09,0,0,1-2.94-.71,5.2,5.2,0,0,1-2-2,5.68,5.68,0,0,1-.73-2.86,5.89,5.89,0,0,1,.69-2.87,5,5,0,0,1,1.92-2,5.41,5.41,0,0,1,2.79-.71,5,5,0,0,1,2.66.68,4.41,4.41,0,0,1,1.72,1.9,6.24,6.24,0,0,1,.6,2.8A.86.86,0,0,1,251.56,200.15Zm-7.09-3.49a3.6,3.6,0,0,0-1.15,2.14H250a3.5,3.5,0,0,0-1-2.14,2.9,2.9,0,0,0-2.14-.8A3.44,3.44,0,0,0,244.47,196.66Z"/><path class="cls-1" d="M260.77,194.87a5.21,5.21,0,0,1,2,2,5.53,5.53,0,0,1,.73,2.83v4.46a1,1,0,0,1-1,1,1,1,0,0,1-1-1v-.74a4.94,4.94,0,0,1-1.7,1.34,5.09,5.09,0,0,1-4.77-.24,5.12,5.12,0,0,1-1.84-2,6.06,6.06,0,0,1-.67-2.83,5.62,5.62,0,0,1,.72-2.83,5.24,5.24,0,0,1,2-2,5.53,5.53,0,0,1,2.81-.73A5.38,5.38,0,0,1,260.77,194.87Zm-1,8.08a3.48,3.48,0,0,0,1.27-1.34,4.22,4.22,0,0,0,0-3.83,3.31,3.31,0,0,0-1.27-1.35,3.59,3.59,0,0,0-3.62,0,3.47,3.47,0,0,0-1.28,1.35,4.14,4.14,0,0,0,0,3.83,3.66,3.66,0,0,0,1.28,1.34,3.59,3.59,0,0,0,3.62,0Z"/><path class="cls-1" d="M272.54,194.42a.93.93,0,0,1,.6.8.53.53,0,0,1,0,.2.78.78,0,0,1-.8.64l-.3,0a7.21,7.21,0,0,0-1.3-.14,3.78,3.78,0,0,0-2.32.66,2.1,2.1,0,0,0-.88,1.78v5.84a1,1,0,0,1-.25.74,1,1,0,0,1-.75.26,1.07,1.07,0,0,1-.74-.25,1,1,0,0,1-.26-.75v-8.94a1,1,0,0,1,.26-.74,1,1,0,0,1,.74-.26.88.88,0,0,1,1,1v.38a4.16,4.16,0,0,1,1.48-1.1,4.47,4.47,0,0,1,1.88-.4A3.47,3.47,0,0,1,272.54,194.42Z"/><path class="cls-1" d="M282.16,194.72a4.21,4.21,0,0,1,1.72,1.75,5.67,5.67,0,0,1,.62,2.77v4.92a1,1,0,0,1-.29.73,1,1,0,0,1-.73.29,1,1,0,0,1-1-1v-4.92a3.23,3.23,0,0,0-.87-2.45,3.18,3.18,0,0,0-2.31-.83,3.37,3.37,0,0,0-1.53.34,2.64,2.64,0,0,0-1.08.92,2.26,2.26,0,0,0-.39,1.3v5.64a1,1,0,0,1-.28.73,1.08,1.08,0,0,1-1.47,0,1,1,0,0,1-.29-.73v-8.92a1,1,0,0,1,.29-.74,1.1,1.1,0,0,1,1.47,0,1,1,0,0,1,.28.74v.22a4.44,4.44,0,0,1,1.52-1,5,5,0,0,1,1.88-.35A5.08,5.08,0,0,1,282.16,194.72Z"/><path class="cls-1" d="M296.44,200.15a.93.93,0,0,1-.66.25h-7.6a3.56,3.56,0,0,0,1.27,2.26,4,4,0,0,0,2.57.86,4.07,4.07,0,0,0,1.25-.22,3.81,3.81,0,0,0,1.07-.54,1,1,0,0,1,.66-.22.82.82,0,0,1,.6.2.86.86,0,0,1,.36.68.71.71,0,0,1-.32.6,5.49,5.49,0,0,1-1.69.88,6.19,6.19,0,0,1-1.93.34,6.09,6.09,0,0,1-2.94-.71,5.27,5.27,0,0,1-2-2,5.58,5.58,0,0,1-.73-2.86,5.89,5.89,0,0,1,.69-2.87,5,5,0,0,1,1.92-2,5.41,5.41,0,0,1,2.79-.71,4.94,4.94,0,0,1,2.66.68,4.41,4.41,0,0,1,1.72,1.9,6.24,6.24,0,0,1,.6,2.8A.82.82,0,0,1,296.44,200.15Zm-7.09-3.49a3.55,3.55,0,0,0-1.15,2.14h6.66a3.5,3.5,0,0,0-1-2.14,2.91,2.91,0,0,0-2.14-.8A3.44,3.44,0,0,0,289.35,196.66Z"/><path class="cls-1" d="M308.08,189.82a1,1,0,0,1,.28.74v9.12a5.5,5.5,0,0,1-2.71,4.83,5.48,5.48,0,0,1-2.79.73,5.61,5.61,0,0,1-2.81-.73,5.38,5.38,0,0,1-2-2,5.65,5.65,0,0,1-.72-2.83,5.91,5.91,0,0,1,.67-2.83,5.05,5.05,0,0,1,1.84-2,5.09,5.09,0,0,1,4.77-.24,4.82,4.82,0,0,1,1.7,1.34v-5.4a1,1,0,0,1,.29-.74,1.1,1.1,0,0,1,1.47,0ZM304.67,203a3.44,3.44,0,0,0,1.27-1.35,4,4,0,0,0,.46-1.92,3.88,3.88,0,0,0-.46-1.91,3.35,3.35,0,0,0-1.27-1.34,3.59,3.59,0,0,0-3.62,0,3.44,3.44,0,0,0-1.28,1.34,3.89,3.89,0,0,0-.47,1.91,4,4,0,0,0,.47,1.92,3.54,3.54,0,0,0,1.28,1.35,3.59,3.59,0,0,0,3.62,0Z"/><path class="cls-1" d="M242.59,227.86a1,1,0,0,1-.29-.74V213.58a1,1,0,0,1,.3-.74,1,1,0,0,1,.72-.3,1,1,0,0,1,1,1v12.5h7.24a1,1,0,0,1,.74.3,1,1,0,0,1,.3.74,1,1,0,0,1-1,1h-8.28A1,1,0,0,1,242.59,227.86Z"/><path class="cls-1" d="M254.23,215.05a1.3,1.3,0,1,1,.93.39A1.27,1.27,0,0,1,254.23,215.05Zm.2,12.82a1,1,0,0,1-.29-.73v-8.9a1,1,0,0,1,.29-.74,1,1,0,0,1,.73-.28,1,1,0,0,1,1,1v8.9a1,1,0,0,1-.28.73,1,1,0,0,1-.74.29A1,1,0,0,1,254.43,227.87Z"/><path class="cls-1" d="M267.49,217.86a5,5,0,0,1,1.84,2,5.91,5.91,0,0,1,.67,2.83,5.65,5.65,0,0,1-.72,2.83,5.31,5.31,0,0,1-2,2,5.61,5.61,0,0,1-2.81.73,5.46,5.46,0,0,1-5.5-5.56v-9.12a1,1,0,0,1,.29-.74,1,1,0,0,1,.73-.28,1,1,0,0,1,.74.28,1,1,0,0,1,.28.74V219a4.82,4.82,0,0,1,1.7-1.34,5,5,0,0,1,2.16-.48A4.88,4.88,0,0,1,267.49,217.86Zm-1.2,8.09a3.54,3.54,0,0,0,1.28-1.35,3.9,3.9,0,0,0,.47-1.92,3.78,3.78,0,0,0-.47-1.91,3.44,3.44,0,0,0-1.28-1.34,3.49,3.49,0,0,0-4.89,1.34,3.88,3.88,0,0,0-.46,1.91,4,4,0,0,0,.46,1.92,3.53,3.53,0,0,0,4.89,1.35Z"/><path class="cls-1" d="M279.06,217.42a.93.93,0,0,1,.6.8.88.88,0,0,1,0,.2.78.78,0,0,1-.8.64l-.3,0a7.21,7.21,0,0,0-1.3-.14,3.78,3.78,0,0,0-2.32.66,2.1,2.1,0,0,0-.88,1.78v5.84a.89.89,0,0,1-1,1,1,1,0,0,1-.74-.25,1,1,0,0,1-.26-.75v-8.94a1,1,0,0,1,.26-.74,1,1,0,0,1,.74-.26.88.88,0,0,1,1,1v.38a4.07,4.07,0,0,1,1.48-1.1,4.44,4.44,0,0,1,1.88-.4A3.47,3.47,0,0,1,279.06,217.42Z"/><path class="cls-1" d="M287.71,217.87a5.35,5.35,0,0,1,2,2,5.53,5.53,0,0,1,.73,2.83v4.46a1,1,0,0,1-.29.73,1.06,1.06,0,0,1-1.46,0,1,1,0,0,1-.29-.73v-.74a4.92,4.92,0,0,1-3.86,1.82,4.88,4.88,0,0,1-2.61-.72,5.12,5.12,0,0,1-1.84-2,5.94,5.94,0,0,1-.67-2.83,5.62,5.62,0,0,1,.72-2.83,5.17,5.17,0,0,1,2-2,5.5,5.5,0,0,1,2.81-.73A5.38,5.38,0,0,1,287.71,217.87Zm-1,8.08a3.56,3.56,0,0,0,1.27-1.34,4.22,4.22,0,0,0,0-3.83,3.5,3.5,0,0,0-6.17,0,4.14,4.14,0,0,0,0,3.83,3.58,3.58,0,0,0,1.28,1.34,3.59,3.59,0,0,0,3.62,0Z"/><path class="cls-1" d="M299.48,217.42a.93.93,0,0,1,.6.8.88.88,0,0,1,0,.2.78.78,0,0,1-.8.64l-.3,0a7.21,7.21,0,0,0-1.3-.14,3.78,3.78,0,0,0-2.32.66,2.1,2.1,0,0,0-.88,1.78v5.84a.89.89,0,0,1-1,1,1,1,0,0,1-.74-.25,1,1,0,0,1-.26-.75v-8.94a1,1,0,0,1,.26-.74,1,1,0,0,1,.74-.26.88.88,0,0,1,1,1v.38a4.07,4.07,0,0,1,1.48-1.1,4.44,4.44,0,0,1,1.88-.4A3.47,3.47,0,0,1,299.48,217.42Z"/><path class="cls-1" d="M310.16,218.1a1.29,1.29,0,0,1-.12.48l-6.12,13.76a.82.82,0,0,1-.78.62,1.29,1.29,0,0,1-.48-.12.85.85,0,0,1-.6-.78,1.07,1.07,0,0,1,.12-.48l2-4.5-4.5-8.54a.82.82,0,0,1-.1-.42.75.75,0,0,1,.16-.48,1.07,1.07,0,0,1,.42-.34.87.87,0,0,1,.4-.08.89.89,0,0,1,.84.56l3.66,7.28,3.22-7.26a.83.83,0,0,1,.78-.58,1.12,1.12,0,0,1,.48.1A.82.82,0,0,1,310.16,218.1Z"/><path class="cls-1" d="M139.26,91.18H111.63c-2.86,0-4.88-1.82-4.95-4.4-.06-2.77,1.61-4.38,4.81-4.39q27.9,0,55.79,0c3.17,0,4.87,1.64,4.81,4.38-.05,2.57-2.09,4.41-4.94,4.41Z"/><path class="cls-1" d="M123.57,94.88h28.72c2.77,0,4.64,1.74,4.71,4.31s-1.56,4.26-4.43,4.26q-29,.06-58,0c-2.88,0-4.55-1.66-4.53-4.17,0-3,1.5-4.39,4.79-4.4Z"/><path class="cls-1" d="M113.77,107.77h26c3.45,0,5.45,1.68,5.41,4.51,0,2.68-2,4.35-5.32,4.35q-26.29,0-52.59,0c-3.3,0-5.26-1.72-5.27-4.4s2-4.46,5.44-4.46Z"/><path class="cls-1" d="M116,129.56c-6.13,0-10.8,0-16.91,0-3.08,0-5-1.7-5-4.32s1.76-4.19,5-4.2q17,0,34.09,0c3.1,0,5.22,1.79,5.13,4.2-.1,2.59-2.11,4.31-5.13,4.32C127.46,129.57,121.73,129.56,116,129.56Z"/><path class="cls-1" d="M121.91,142.17c-3.21,0-6.43,0-9.65,0-2.85,0-4.33-1.55-4.35-4.26s1.46-4.21,4.37-4.23q9.51-.07,19,0c2.76,0,4.55,1.79,4.47,4.22a4.36,4.36,0,0,1-4.49,4.27C128.17,142.2,125,142.17,121.91,142.17Z"/><path class="cls-1" d="M124.06,155c-2.79-.07-5.57-1.61-5.57-4.45,0-3.34,2.82-4.46,5.48-4.42,2.36,0,4.64,0,6.95,0a4.2,4.2,0,0,1,4,4.34,4.26,4.26,0,0,1-4.22,4.53Z"/><path class="cls-1" d="M135.2,158.39a3.68,3.68,0,0,1,3.73,3.94c0,2.35-1.39,4.42-4,4.42-2,0-3.08,0-5.07,0a4.13,4.13,0,0,1-4.23-4.16,4.05,4.05,0,0,1,4.42-4.3Z"/><circle class="cls-1" cx="139.57" cy="173.18" r="4.25"/><path class="cls-1" d="M289.18,47.33a21.26,21.26,0,1,0,21.26,21.26A21.26,21.26,0,0,0,289.18,47.33Zm9.49,24c-2.16,0-4.33,0-6.79,0,0,2,0,3.83,0,5.68a12.07,12.07,0,0,1-.17,2.33,2.42,2.42,0,0,1-2.62,2,2.33,2.33,0,0,1-2.51-2.14c-.17-1.74-.15-3.49-.2-5.24,0-.78,0-1.56,0-2.66-2.37,0-4.47,0-6.56,0s-3.33-.89-3.38-2.63,1-2.75,3.38-2.8c1.63,0,5.07-.08,6.65-.08,0-1.69-.13-4.94-.08-6.63.08-2.14,1.1-3.32,2.79-3.33s2.66,1.16,2.7,3.36c0,1.51,0,6.2-.08,6.74,1.35-.05,5.45-.1,7,0,2,.07,3.16,1.16,3.13,2.77S300.64,71.28,298.67,71.3Z"/><path class="cls-1" d="M303.09,157.14a2.5,2.5,0,0,1-2.5-2.5V120.08a2.5,2.5,0,1,1,5,0v34.56A2.5,2.5,0,0,1,303.09,157.14Z"/><path class="cls-1" d="M290.18,173.39a2.5,2.5,0,0,1-2.5-2.5V104.22a2.5,2.5,0,1,1,5,0v66.67A2.5,2.5,0,0,1,290.18,173.39Z"/><path class="cls-1" d="M260.93,138.47h0a14.54,14.54,0,0,0-5-4.44,16.88,16.88,0,0,0,3.1-2.79,10.76,10.76,0,0,0,2.63-7.2,13.55,13.55,0,0,0-2.05-7.29,14.44,14.44,0,0,0-5.57-5.13,16.21,16.21,0,0,0-7.71-1.86,18.18,18.18,0,0,0-8.34,1.91,15.26,15.26,0,0,0-6,5.35,13.89,13.89,0,0,0-2.23,7.67,5.05,5.05,0,0,0,1.28,3.5,4.52,4.52,0,0,0,6.84-.11,5.44,5.44,0,0,0,1.24-3.59,4.4,4.4,0,0,1,.88-2.66,7.08,7.08,0,0,1,2.64-2.1,8.83,8.83,0,0,1,3.82-.81,6,6,0,0,1,4.21,1.5,4.73,4.73,0,0,1,1.56,3.62,4.81,4.81,0,0,1-.8,2.67,6.25,6.25,0,0,1-2.21,2,5.74,5.74,0,0,1-2.76.74,4.92,4.92,0,0,0-5,5,5,5,0,0,0,1.42,3.58,4.82,4.82,0,0,0,3.59,1.49,6.85,6.85,0,0,1,3.66,1,7.27,7.27,0,0,1,2.63,2.88,8.92,8.92,0,0,1,1,4.16,7,7,0,0,1-2.07,5.43,8.31,8.31,0,0,1-5.85,2,9,9,0,0,1-4.44-1.12,8.52,8.52,0,0,1-3.15-3,7.73,7.73,0,0,1-1.12-4.06,5.23,5.23,0,0,0-1.26-3.51,4.53,4.53,0,0,0-6.84,0,5.16,5.16,0,0,0-1.26,3.51,16.79,16.79,0,0,0,2.4,8.87,17,17,0,0,0,6.61,6.23,19.78,19.78,0,0,0,9.45,2.25,18.25,18.25,0,0,0,8.66-2.12,16.76,16.76,0,0,0,6.4-5.9,15.53,15.53,0,0,0,2.42-8.48A15.85,15.85,0,0,0,260.93,138.47Z"/><path class="cls-1" d="M214.24,167.58H184.33v-55a4.82,4.82,0,0,0-4.87-4.87,4.6,4.6,0,0,0-3.38,1.41,4.71,4.71,0,0,0-1.4,3.46v59.87A4.78,4.78,0,0,0,176,175.9a4.58,4.58,0,0,0,3.43,1.41h34.78a4.87,4.87,0,1,0,0-9.73Z"/><path class="cls-1" d="M280,99.94a8.21,8.21,0,0,0-1-3.8,11.65,11.65,0,0,1-1.17-3.45l0-.25-.23-.11a26.54,26.54,0,0,1-7-5l-.19-.19-.26.05a1.42,1.42,0,0,1-.34,0c-8.2,0-24.88,0-34.09,0h-13.9c-1.2,0-2.07,0-2.84.8a3.17,3.17,0,0,0,0,4.08,4.29,4.29,0,0,0,3.13.87h.36l47.52-.07a6,6,0,0,1,2.34.53,6.17,6.17,0,0,1,.44,2.28c-2.46,0-27.38.06-44.44.06h-6.7A5.62,5.62,0,0,1,216,91.06a7.34,7.34,0,0,1,.7-4.81A4.41,4.41,0,0,1,220,84.41c.49,0,1,0,1.42,0H268l-.54-.78A27.14,27.14,0,0,1,264.86,79l-.13-.31H232.28l-11.26,0c-6.25,0-10.79,5.07-10.79,12,0,24,0,48.89,0,72.94h4a9.45,9.45,0,0,1,1.61.14c0-17.34,0-35.51,0-50.16V100.4a21.67,21.67,0,0,0,7.57,1.15c1.13,0,2.25,0,3.35-.09s2.3-.09,3.45-.09h.2c5.25,0,11.06.07,18.29.07h11.94l12,0h1.72v71.15H223.1a8.78,8.78,0,0,1-2.17,5.75h54.95c3.33,0,4.19-.86,4.19-4.19v-9.54C280.08,143.42,280.08,121.53,280,99.94Z"/></svg>