<svg xmlns="http://www.w3.org/2000/svg" width="100" height="100"><path d="M32.861 7.596a6.89 6.89 0 0 0-7.091 6.886 6.89 6.89 0 0 0 6.89 6.89 6.89 6.89 0 0 0 .201-13.776zm34.452 0a6.89 6.89 0 0 0-7.09 6.886 6.89 6.89 0 0 0 6.888 6.89 6.89 6.89 0 0 0 .201-13.776zm-.053 17.183a13.78 13.78 0 0 0-9.932 4.069 13.78 13.78 0 0 0-3.998 9.75v6.888a21.394 21.394 0 0 1 1.897-2.377 35.002 35.002 0 0 1 21.427-11.332H79.1a13.78 13.78 0 0 0-11.84-6.998zm-34.6.04a13.78 13.78 0 0 0-11.885 7.163h2.446a34.967 34.967 0 0 1 21.392 11.266 26.08 26.08 0 0 1 1.826 2.24v-6.89a13.78 13.78 0 0 0-13.779-13.78zM11.99 38.597v6.888h3.928a75.791 75.791 0 0 1 12.473 1.725A49.54 49.54 0 0 1 39 51a34.106 34.106 0 0 1 4.133 2.377 28.077 28.077 0 0 0-4.135-5.857l-.791-.862a28.077 28.077 0 0 0-19.533-8.06H11.99zm69.11 0a27.56 27.56 0 0 0-6.444.756A28.353 28.353 0 0 0 57.881 51.14l-.276.513a16.915 16.915 0 0 0-.964 1.725 35.209 35.209 0 0 1 4.203-2.41 52.537 52.537 0 0 1 16.568-4.862 63.493 63.493 0 0 1 8.89-.619h1.48V38.6H81.1v-.002zm-76 13.779l.002 37.894h41.337v-20.67a10.128 10.128 0 0 0 0-1.619 14.366 14.366 0 0 0-6.13-8.058 26.493 26.493 0 0 0-4.204-2.586 50.332 50.332 0 0 0-22.634-4.961H5.1zm76.79.24l-2.79.278h-.723a43.063 43.063 0 0 0-18.156 6.373 14.917 14.917 0 0 0-6.717 8.578 9.784 9.784 0 0 0-.174 1.758v20.67h41.342V52.616H81.89zm-9.078 7.31c4.48 0 8.325 2.727 8.325 7.057 0 2.95-2.24 5.115-3.957 5.899v.15c2.09.71 4.629 2.65 4.629 6.197 0 4.182-3.658 7.579-8.96 7.579-4.853 0-7.092-2.315-7.913-3.323a.784.784 0 0 1 .037-.97l2.24-2.502c.261-.262.672-.336.97-.075.934.784 2.24 1.754 4.22 1.754 1.903 0 3.322-1.156 3.322-3.06 0-1.904-1.718-3.137-4.555-3.137h-2.166a.734.734 0 0 1-.71-.709v-3.21c0-.411.337-.71.71-.71h2.166c2.688 0 4.105-1.27 4.105-2.912 0-1.68-1.119-2.912-3.06-2.912-1.717 0-2.762.897-3.36 1.531-.26.336-.71.336-1.046.074l-2.352-2.314c-.299-.261-.261-.746 0-1.008 1.344-1.381 3.66-3.398 7.356-3.398zm-51.835.376h4.441c.373 0 .709.335.709.709v19.935h8.887c.41 0 .709.336.709.71v4.07a.708.708 0 0 1-.71.709H20.978a.71.71 0 0 1-.711-.71V61.013c0-.374.3-.71.71-.71zm63.271 7.677h.098c-.033.137-.057.278-.098.41v-.41z" fill="#fff"/></svg>