<svg xmlns="http://www.w3.org/2000/svg" width="100" height="100"><path d="M87.782 45.488h-1.481a63.493 63.493 0 0 0-8.889.62 52.537 52.537 0 0 0-16.57 4.858 35.209 35.209 0 0 0-4.203 2.411 16.915 16.915 0 0 1 .964-1.722l.276-.517a28.353 28.353 0 0 1 16.777-11.782 27.56 27.56 0 0 1 6.443-.758h6.683zm-27.56-31.006a6.89 6.89 0 1 1 6.89 6.89 6.89 6.89 0 0 1-6.89-6.89zm-2.894 14.366A13.78 13.78 0 0 1 79.1 31.777h-2.446A35.002 35.002 0 0 0 55.226 43.11a21.394 21.394 0 0 0-1.895 2.377v-6.89a13.78 13.78 0 0 1 3.997-9.75zM25.77 14.482a6.89 6.89 0 1 1 6.89 6.89 6.89 6.89 0 0 1-6.89-6.89zm6.89 10.336a13.78 13.78 0 0 1 13.78 13.78v6.89a26.08 26.08 0 0 0-1.826-2.24 34.967 34.967 0 0 0-21.393-11.265h-2.445a13.78 13.78 0 0 1 11.885-7.165zm-20.67 13.78h6.683a28.077 28.077 0 0 1 19.534 8.061l.792.861a28.077 28.077 0 0 1 4.134 5.857A34.106 34.106 0 0 0 39 51a49.54 49.54 0 0 0-10.61-3.79 75.791 75.791 0 0 0-12.472-1.722h-3.927zM5.1 52.378h8.371a50.332 50.332 0 0 1 22.634 4.96 26.493 26.493 0 0 1 4.203 2.585 14.366 14.366 0 0 1 6.132 8.061 10.128 10.128 0 0 1 0 1.62v20.67H5.101zm89.571 37.896h-41.34v-20.67a9.784 9.784 0 0 1 .172-1.758 14.917 14.917 0 0 1 6.718-8.578 43.063 43.063 0 0 1 18.155-6.373h.724l2.79-.276h12.781z" data-name="11-group class" fill="#f9a825"/></svg>