<svg xmlns="http://www.w3.org/2000/svg" width="100" height="100"><path d="M32.861 7.596a6.89 6.89 0 0 0-7.091 6.886 6.89 6.89 0 0 0 6.89 6.89 6.89 6.89 0 0 0 .201-13.776zm34.452 0a6.89 6.89 0 0 0-7.09 6.886 6.89 6.89 0 0 0 6.888 6.89 6.89 6.89 0 0 0 .201-13.776zm-.053 17.183a13.78 13.78 0 0 0-9.932 4.069 13.78 13.78 0 0 0-3.998 9.75v6.888a21.394 21.394 0 0 1 1.897-2.377 35.002 35.002 0 0 1 21.427-11.332H79.1a13.78 13.78 0 0 0-11.84-6.998zm-34.6.04a13.78 13.78 0 0 0-11.885 7.163h2.446a34.967 34.967 0 0 1 21.392 11.266 26.08 26.08 0 0 1 1.826 2.24v-6.89a13.78 13.78 0 0 0-13.779-13.78zM11.99 38.597v6.89h3.928a75.791 75.791 0 0 1 12.473 1.723A49.54 49.54 0 0 1 39 51a34.106 34.106 0 0 1 4.133 2.377 28.077 28.077 0 0 0-4.135-5.857l-.791-.862a28.077 28.077 0 0 0-19.533-8.06H11.99zm69.11 0a27.56 27.56 0 0 0-6.444.757A28.353 28.353 0 0 0 57.88 51.14l-.275.515a16.915 16.915 0 0 0-.965 1.723 35.209 35.209 0 0 1 4.203-2.41 52.537 52.537 0 0 1 16.57-4.86 63.493 63.493 0 0 1 8.889-.619h1.48v-6.89H81.1zm-76 13.78l.002 37.895h41.337v-20.67a10.128 10.128 0 0 0 0-1.619 14.366 14.366 0 0 0-6.13-8.06 26.493 26.493 0 0 0-4.204-2.586 50.332 50.332 0 0 0-22.634-4.96H5.1zm76.79.241l-2.79.276h-.723a43.063 43.063 0 0 0-18.156 6.373 14.917 14.917 0 0 0-6.717 8.578 9.784 9.784 0 0 0-.174 1.758v20.67h41.342V52.618H81.89zm-5.695 7.035c4.48 0 8.325 2.726 8.325 7.057 0 2.95-2.24 5.114-3.957 5.898v.149c2.09.71 4.628 2.65 4.628 6.197 0 4.181-3.657 7.578-8.959 7.578-4.853 0-7.094-2.314-7.916-3.322a.784.784 0 0 1 .038-.97l2.24-2.5c.261-.262.672-.338.97-.077.934.784 2.24 1.756 4.22 1.756 1.903 0 3.321-1.159 3.321-3.063 0-1.904-1.717-3.134-4.554-3.134h-2.164a.734.734 0 0 1-.71-.71v-3.21c0-.41.336-.711.71-.711h2.164c2.688 0 4.107-1.268 4.107-2.91 0-1.68-1.119-2.912-3.06-2.912-1.718 0-2.764.894-3.362 1.529-.261.336-.709.337-1.045.076l-2.351-2.316c-.299-.262-.261-.747 0-1.008 1.344-1.382 3.66-3.397 7.355-3.397zm-60.806.373h4.443c.373 0 .709.336.709.71v19.935h8.887a.71.71 0 0 1 .709.71v4.07a.708.708 0 0 1-.71.708H15.39a.708.708 0 0 1-.71-.709V60.736c0-.373.299-.709.71-.709z" fill="#fff"/><text style="line-height:125%;-inkscape-font-specification:'Brandon Text Bold';text-align:center" x="16.949" y="80.085" font-weight="700" font-size="37.333" font-family="Brandon Text" letter-spacing="0" word-spacing="0" text-anchor="middle"/></svg>