<?xml version="1.0" encoding="UTF-8" standalone="no"?>
<svg
   xmlns:dc="http://purl.org/dc/elements/1.1/"
   xmlns:cc="http://creativecommons.org/ns#"
   xmlns:rdf="http://www.w3.org/1999/02/22-rdf-syntax-ns#"
   xmlns:svg="http://www.w3.org/2000/svg"
   xmlns="http://www.w3.org/2000/svg"
   xmlns:sodipodi="http://sodipodi.sourceforge.net/DTD/sodipodi-0.dtd"
   xmlns:inkscape="http://www.inkscape.org/namespaces/inkscape"
   inkscape:version="1.0 (4035a4fb49, 2020-05-01)"
   height="200"
   width="240"
   sodipodi:docname="logo_white.svg"
   version="1.1"
   viewBox="0 0 239.99999 200.00001"
   data-name="Calque 1"
   id="Calque_1">
  <metadata
     id="metadata23">
    <rdf:RDF>
      <cc:Work
         rdf:about="">
        <dc:format>image/svg+xml</dc:format>
        <dc:type
           rdf:resource="http://purl.org/dc/dcmitype/StillImage" />
        <dc:title></dc:title>
      </cc:Work>
    </rdf:RDF>
  </metadata>
  <sodipodi:namedview
     inkscape:current-layer="Calque_1"
     inkscape:window-maximized="1"
     inkscape:window-y="-9"
     inkscape:window-x="-9"
     inkscape:cy="141.73"
     inkscape:cx="209.69501"
     inkscape:zoom="3.1291894"
     showgrid="false"
     id="namedview21"
     inkscape:window-height="1051"
     inkscape:window-width="1920"
     inkscape:pageshadow="2"
     inkscape:pageopacity="0"
     guidetolerance="10"
     gridtolerance="10"
     objecttolerance="10"
     borderopacity="1"
     bordercolor="#666666"
     pagecolor="#ffffff" />
  <defs
     id="defs4">
    <style
       id="style2">.cls-1{fill:#000101}.cls-2{fill:#00487d}.cls-3{fill:#f9b605}</style>
  </defs>
  <g
     transform="translate(-77.655894,-38.987733)"
     id="g855">
    <path
       class="cls-1"
       d="m 147.81,204.86 a 1,1 0 0 1 -0.29,-0.74 v -13.54 a 1,1 0 0 1 0.3,-0.74 1,1 0 0 1 0.72,-0.3 1,1 0 0 1 0.74,0.3 1,1 0 0 1 0.3,0.74 v 12.5 h 7.24 a 1,1 0 0 1 0.74,0.3 1,1 0 0 1 0.3,0.74 1,1 0 0 1 -1,1 h -8.28 a 1,1 0 0 1 -0.77,-0.26 z m 20.91,-4.71 a 0.93,0.93 0 0 1 -0.66,0.25 h -7.6 a 3.56,3.56 0 0 0 1.27,2.26 4,4 0 0 0 2.57,0.86 4.07,4.07 0 0 0 1.25,-0.22 4,4 0 0 0 1.07,-0.54 1,1 0 0 1 0.66,-0.22 0.84,0.84 0 0 1 0.6,0.2 0.86,0.86 0 0 1 0.36,0.68 0.71,0.71 0 0 1 -0.32,0.6 5.6,5.6 0 0 1 -1.69,0.88 6.24,6.24 0 0 1 -1.93,0.34 6.09,6.09 0 0 1 -2.94,-0.71 5.2,5.2 0 0 1 -2,-2 5.58,5.58 0 0 1 -0.73,-2.86 5.89,5.89 0 0 1 0.69,-2.87 5,5 0 0 1 1.92,-2 5.41,5.41 0 0 1 2.79,-0.71 5,5 0 0 1 2.66,0.68 4.41,4.41 0 0 1 1.72,1.9 6.24,6.24 0 0 1 0.6,2.8 0.86,0.86 0 0 1 -0.29,0.68 z m -7.09,-3.49 a 3.55,3.55 0 0 0 -1.15,2.14 h 6.66 a 3.5,3.5 0 0 0 -1,-2.14 2.91,2.91 0 0 0 -2.14,-0.8 3.44,3.44 0 0 0 -2.37,0.8 z m 10.37,8.16 a 4.92,4.92 0 0 1 -1.88,-1.1 0.87,0.87 0 0 1 -0.26,-0.62 0.92,0.92 0 0 1 0.4,-0.78 1.19,1.19 0 0 1 0.7,-0.28 1.06,1.06 0 0 1 0.76,0.36 3.07,3.07 0 0 0 1.14,0.73 4.4,4.4 0 0 0 1.62,0.31 3.47,3.47 0 0 0 1.77,-0.38 1.17,1.17 0 0 0 0.63,-1 1.2,1.2 0 0 0 -0.62,-1 5.77,5.77 0 0 0 -2.1,-0.69 q -3.84,-0.75 -3.84,-3.16 a 2.44,2.44 0 0 1 0.58,-1.66 3.41,3.41 0 0 1 1.52,-1 5.8,5.8 0 0 1 2,-0.34 6.12,6.12 0 0 1 2.33,0.42 3.9,3.9 0 0 1 1.63,1.16 1,1 0 0 1 0.26,0.64 0.81,0.81 0 0 1 -0.34,0.62 1,1 0 0 1 -0.56,0.16 1.38,1.38 0 0 1 -0.94,-0.38 2.85,2.85 0 0 0 -1.06,-0.65 4.17,4.17 0 0 0 -1.36,-0.19 3.19,3.19 0 0 0 -1.51,0.31 1,1 0 0 0 -0.59,0.87 1.13,1.13 0 0 0 0.2,0.67 1.84,1.84 0 0 0 0.76,0.5 10.15,10.15 0 0 0 1.62,0.45 7,7 0 0 1 3.09,1.22 2.52,2.52 0 0 1 0.91,2 3,3 0 0 1 -0.5,1.67 3.31,3.31 0 0 1 -1.47,1.18 5.84,5.84 0 0 1 -2.33,0.43 7.68,7.68 0 0 1 -2.56,-0.47 z m 9.86,0 a 4.92,4.92 0 0 1 -1.88,-1.1 0.87,0.87 0 0 1 -0.26,-0.62 0.92,0.92 0 0 1 0.4,-0.78 1.21,1.21 0 0 1 0.7,-0.28 1.06,1.06 0 0 1 0.76,0.36 3.16,3.16 0 0 0 1.14,0.73 4.4,4.4 0 0 0 1.62,0.31 3.47,3.47 0 0 0 1.77,-0.38 1.17,1.17 0 0 0 0.63,-1 1.18,1.18 0 0 0 -0.62,-1 5.77,5.77 0 0 0 -2.1,-0.69 q -3.84,-0.75 -3.84,-3.16 a 2.49,2.49 0 0 1 0.58,-1.66 3.41,3.41 0 0 1 1.52,-1 5.76,5.76 0 0 1 2,-0.34 6.12,6.12 0 0 1 2.33,0.42 3.9,3.9 0 0 1 1.63,1.16 1,1 0 0 1 0.26,0.64 0.81,0.81 0 0 1 -0.34,0.62 1,1 0 0 1 -0.56,0.16 1.38,1.38 0 0 1 -0.94,-0.38 2.85,2.85 0 0 0 -1.06,-0.65 4.17,4.17 0 0 0 -1.36,-0.19 3.22,3.22 0 0 0 -1.51,0.31 1,1 0 0 0 -0.59,0.87 1.13,1.13 0 0 0 0.2,0.67 1.84,1.84 0 0 0 0.76,0.5 10.15,10.15 0 0 0 1.62,0.45 6.92,6.92 0 0 1 3.09,1.22 2.52,2.52 0 0 1 0.91,2 3,3 0 0 1 -0.5,1.67 3.31,3.31 0 0 1 -1.47,1.18 5.84,5.84 0 0 1 -2.33,0.43 7.68,7.68 0 0 1 -2.56,-0.47 z m 10.54,-0.29 a 5.08,5.08 0 0 1 -2,-2 6.23,6.23 0 0 1 0,-5.74 5,5 0 0 1 2,-2 5.67,5.67 0 0 1 2.86,-0.71 5.56,5.56 0 0 1 2.83,0.71 5.08,5.08 0 0 1 2,2 5.7,5.7 0 0 1 0.71,2.88 5.77,5.77 0 0 1 -0.7,2.86 5.06,5.06 0 0 1 -1.95,2 5.68,5.68 0 0 1 -2.85,0.71 5.78,5.78 0 0 1 -2.9,-0.71 z m 4.69,-1.57 a 3.36,3.36 0 0 0 1.26,-1.33 4.39,4.39 0 0 0 0,-3.87 3.26,3.26 0 0 0 -1.26,-1.34 3.73,3.73 0 0 0 -3.66,0 3.35,3.35 0 0 0 -1.27,1.34 4.3,4.3 0 0 0 0,3.87 3.46,3.46 0 0 0 1.27,1.33 3.73,3.73 0 0 0 3.66,0 z m 13.63,-8.24 a 4.15,4.15 0 0 1 1.72,1.75 5.67,5.67 0 0 1 0.62,2.77 v 4.92 a 1,1 0 0 1 -0.29,0.73 1.06,1.06 0 0 1 -1.46,0 1,1 0 0 1 -0.29,-0.73 v -4.92 a 3.23,3.23 0 0 0 -0.87,-2.45 3.18,3.18 0 0 0 -2.31,-0.83 3.37,3.37 0 0 0 -1.53,0.34 2.64,2.64 0 0 0 -1.08,0.92 2.26,2.26 0 0 0 -0.39,1.3 v 5.64 a 1,1 0 0 1 -0.28,0.73 1,1 0 0 1 -0.74,0.29 1,1 0 0 1 -1,-1 v -8.92 a 1,1 0 0 1 0.29,-0.74 1,1 0 0 1 0.73,-0.28 1,1 0 0 1 1,1 v 0.22 a 4.44,4.44 0 0 1 1.52,-1 4.91,4.91 0 0 1 1.88,-0.35 5.08,5.08 0 0 1 2.48,0.61 z m 6.14,10.1 a 4.92,4.92 0 0 1 -1.88,-1.1 0.87,0.87 0 0 1 -0.26,-0.62 0.92,0.92 0 0 1 0.4,-0.78 1.21,1.21 0 0 1 0.7,-0.28 1.06,1.06 0 0 1 0.76,0.36 3.16,3.16 0 0 0 1.14,0.73 4.4,4.4 0 0 0 1.62,0.31 3.47,3.47 0 0 0 1.77,-0.38 1.17,1.17 0 0 0 0.63,-1 1.18,1.18 0 0 0 -0.62,-1 5.77,5.77 0 0 0 -2.1,-0.69 q -3.84,-0.75 -3.84,-3.16 a 2.49,2.49 0 0 1 0.58,-1.66 3.41,3.41 0 0 1 1.52,-1 5.76,5.76 0 0 1 2,-0.34 6.12,6.12 0 0 1 2.33,0.42 3.9,3.9 0 0 1 1.63,1.16 1,1 0 0 1 0.26,0.64 0.81,0.81 0 0 1 -0.34,0.62 1,1 0 0 1 -0.56,0.16 1.38,1.38 0 0 1 -0.94,-0.38 2.85,2.85 0 0 0 -1.06,-0.65 4.17,4.17 0 0 0 -1.36,-0.19 3.22,3.22 0 0 0 -1.51,0.31 1,1 0 0 0 -0.59,0.87 1.13,1.13 0 0 0 0.2,0.67 1.84,1.84 0 0 0 0.76,0.5 10.15,10.15 0 0 0 1.62,0.45 6.92,6.92 0 0 1 3.09,1.22 2.52,2.52 0 0 1 0.91,2 3,3 0 0 1 -0.5,1.67 3.31,3.31 0 0 1 -1.47,1.18 5.84,5.84 0 0 1 -2.33,0.43 7.68,7.68 0 0 1 -2.56,-0.47 z m 13.79,0.04 a 1,1 0 0 1 -0.29,-0.74 v -13.54 a 1,1 0 0 1 0.3,-0.74 1,1 0 0 1 0.72,-0.3 1,1 0 0 1 1,1 v 12.5 h 7.24 a 1,1 0 0 1 1,1 1,1 0 0 1 -0.3,0.74 1,1 0 0 1 -0.74,0.3 h -8.28 a 1,1 0 0 1 -0.65,-0.22 z m 20.91,-4.71 a 0.93,0.93 0 0 1 -0.66,0.25 h -7.6 a 3.56,3.56 0 0 0 1.27,2.26 4,4 0 0 0 2.57,0.86 4.07,4.07 0 0 0 1.25,-0.22 4,4 0 0 0 1.07,-0.54 1,1 0 0 1 0.66,-0.22 0.82,0.82 0 0 1 0.6,0.2 0.86,0.86 0 0 1 0.36,0.68 0.73,0.73 0 0 1 -0.32,0.6 5.6,5.6 0 0 1 -1.69,0.88 6.24,6.24 0 0 1 -1.93,0.34 6.09,6.09 0 0 1 -2.94,-0.71 5.2,5.2 0 0 1 -2,-2 5.68,5.68 0 0 1 -0.73,-2.86 5.89,5.89 0 0 1 0.69,-2.87 5,5 0 0 1 1.92,-2 5.41,5.41 0 0 1 2.79,-0.71 5,5 0 0 1 2.66,0.68 4.41,4.41 0 0 1 1.72,1.9 6.24,6.24 0 0 1 0.6,2.8 0.86,0.86 0 0 1 -0.29,0.68 z m -7.09,-3.49 a 3.6,3.6 0 0 0 -1.15,2.14 H 250 a 3.5,3.5 0 0 0 -1,-2.14 2.9,2.9 0 0 0 -2.14,-0.8 3.44,3.44 0 0 0 -2.39,0.8 z m 16.3,-1.79 a 5.21,5.21 0 0 1 2,2 5.53,5.53 0 0 1 0.73,2.83 v 4.46 a 1,1 0 0 1 -1,1 1,1 0 0 1 -1,-1 v -0.74 a 4.94,4.94 0 0 1 -1.7,1.34 5.09,5.09 0 0 1 -4.77,-0.24 5.12,5.12 0 0 1 -1.84,-2 6.06,6.06 0 0 1 -0.67,-2.83 5.62,5.62 0 0 1 0.72,-2.83 5.24,5.24 0 0 1 2,-2 5.53,5.53 0 0 1 2.81,-0.73 5.38,5.38 0 0 1 2.72,0.74 z m -1,8.08 a 3.48,3.48 0 0 0 1.27,-1.34 4.22,4.22 0 0 0 0,-3.83 3.31,3.31 0 0 0 -1.27,-1.35 3.59,3.59 0 0 0 -3.62,0 3.47,3.47 0 0 0 -1.28,1.35 4.14,4.14 0 0 0 0,3.83 3.66,3.66 0 0 0 1.28,1.34 3.59,3.59 0 0 0 3.62,0 z m 12.77,-8.53 a 0.93,0.93 0 0 1 0.6,0.8 0.53,0.53 0 0 1 0,0.2 0.78,0.78 0 0 1 -0.8,0.64 h -0.3 a 7.21,7.21 0 0 0 -1.3,-0.14 3.78,3.78 0 0 0 -2.32,0.66 2.1,2.1 0 0 0 -0.88,1.78 v 5.84 a 1,1 0 0 1 -0.25,0.74 1,1 0 0 1 -0.75,0.26 1.07,1.07 0 0 1 -0.74,-0.25 1,1 0 0 1 -0.26,-0.75 v -8.94 a 1,1 0 0 1 0.26,-0.74 1,1 0 0 1 0.74,-0.26 0.88,0.88 0 0 1 1,1 v 0.38 a 4.16,4.16 0 0 1 1.48,-1.1 4.47,4.47 0 0 1 1.88,-0.4 3.47,3.47 0 0 1 1.64,0.28 z m 9.62,0.3 a 4.21,4.21 0 0 1 1.72,1.75 5.67,5.67 0 0 1 0.62,2.77 v 4.92 a 1,1 0 0 1 -0.29,0.73 1,1 0 0 1 -0.73,0.29 1,1 0 0 1 -1,-1 v -4.92 a 3.23,3.23 0 0 0 -0.87,-2.45 3.18,3.18 0 0 0 -2.31,-0.83 3.37,3.37 0 0 0 -1.53,0.34 2.64,2.64 0 0 0 -1.08,0.92 2.26,2.26 0 0 0 -0.39,1.3 v 5.64 a 1,1 0 0 1 -0.28,0.73 1.08,1.08 0 0 1 -1.47,0 1,1 0 0 1 -0.29,-0.73 v -8.92 a 1,1 0 0 1 0.29,-0.74 1.1,1.1 0 0 1 1.47,0 1,1 0 0 1 0.28,0.74 v 0.22 a 4.44,4.44 0 0 1 1.52,-1 5,5 0 0 1 1.88,-0.35 5.08,5.08 0 0 1 2.46,0.59 z m 14.28,5.43 a 0.93,0.93 0 0 1 -0.66,0.25 h -7.6 a 3.56,3.56 0 0 0 1.27,2.26 4,4 0 0 0 2.57,0.86 4.07,4.07 0 0 0 1.25,-0.22 3.81,3.81 0 0 0 1.07,-0.54 1,1 0 0 1 0.66,-0.22 0.82,0.82 0 0 1 0.6,0.2 0.86,0.86 0 0 1 0.36,0.68 0.71,0.71 0 0 1 -0.32,0.6 5.49,5.49 0 0 1 -1.69,0.88 6.19,6.19 0 0 1 -1.93,0.34 6.09,6.09 0 0 1 -2.94,-0.71 5.27,5.27 0 0 1 -2,-2 5.58,5.58 0 0 1 -0.73,-2.86 5.89,5.89 0 0 1 0.69,-2.87 5,5 0 0 1 1.92,-2 5.41,5.41 0 0 1 2.79,-0.71 4.94,4.94 0 0 1 2.66,0.68 4.41,4.41 0 0 1 1.72,1.9 6.24,6.24 0 0 1 0.6,2.8 0.82,0.82 0 0 1 -0.29,0.68 z m -7.09,-3.49 a 3.55,3.55 0 0 0 -1.15,2.14 h 6.66 a 3.5,3.5 0 0 0 -1,-2.14 2.91,2.91 0 0 0 -2.14,-0.8 3.44,3.44 0 0 0 -2.37,0.8 z m 18.73,-6.84 a 1,1 0 0 1 0.28,0.74 v 9.12 a 5.5,5.5 0 0 1 -2.71,4.83 5.48,5.48 0 0 1 -2.79,0.73 5.61,5.61 0 0 1 -2.81,-0.73 5.38,5.38 0 0 1 -2,-2 5.65,5.65 0 0 1 -0.72,-2.83 5.91,5.91 0 0 1 0.67,-2.83 5.05,5.05 0 0 1 1.84,-2 5.09,5.09 0 0 1 4.77,-0.24 4.82,4.82 0 0 1 1.7,1.34 v -5.4 a 1,1 0 0 1 0.29,-0.74 1.1,1.1 0 0 1 1.47,0 z M 304.67,203 a 3.44,3.44 0 0 0 1.27,-1.35 4,4 0 0 0 0.46,-1.92 3.88,3.88 0 0 0 -0.46,-1.91 3.35,3.35 0 0 0 -1.27,-1.34 3.59,3.59 0 0 0 -3.62,0 3.44,3.44 0 0 0 -1.28,1.34 3.89,3.89 0 0 0 -0.47,1.91 4,4 0 0 0 0.47,1.92 3.54,3.54 0 0 0 1.28,1.35 3.59,3.59 0 0 0 3.62,0 z m -62.08,24.86 a 1,1 0 0 1 -0.29,-0.74 v -13.54 a 1,1 0 0 1 0.3,-0.74 1,1 0 0 1 0.72,-0.3 1,1 0 0 1 1,1 v 12.5 h 7.24 a 1,1 0 0 1 0.74,0.3 1,1 0 0 1 0.3,0.74 1,1 0 0 1 -1,1 h -8.28 a 1,1 0 0 1 -0.73,-0.22 z m 11.64,-12.81 a 1.3,1.3 0 1 1 0.93,0.39 1.27,1.27 0 0 1 -0.93,-0.39 z m 0.2,12.82 a 1,1 0 0 1 -0.29,-0.73 v -8.9 a 1,1 0 0 1 0.29,-0.74 1,1 0 0 1 0.73,-0.28 1,1 0 0 1 1,1 v 8.9 a 1,1 0 0 1 -0.28,0.73 1,1 0 0 1 -0.74,0.29 1,1 0 0 1 -0.71,-0.27 z m 13.06,-10.01 a 5,5 0 0 1 1.84,2 5.91,5.91 0 0 1 0.67,2.83 5.65,5.65 0 0 1 -0.72,2.83 5.31,5.31 0 0 1 -2,2 5.61,5.61 0 0 1 -2.81,0.73 5.46,5.46 0 0 1 -5.5,-5.56 v -9.12 a 1,1 0 0 1 0.29,-0.74 1,1 0 0 1 0.73,-0.28 1,1 0 0 1 0.74,0.28 1,1 0 0 1 0.28,0.74 V 219 a 4.82,4.82 0 0 1 1.7,-1.34 5,5 0 0 1 2.16,-0.48 4.88,4.88 0 0 1 2.62,0.68 z m -1.2,8.09 a 3.54,3.54 0 0 0 1.28,-1.35 3.9,3.9 0 0 0 0.47,-1.92 3.78,3.78 0 0 0 -0.47,-1.91 3.44,3.44 0 0 0 -1.28,-1.34 3.49,3.49 0 0 0 -4.89,1.34 3.88,3.88 0 0 0 -0.46,1.91 4,4 0 0 0 0.46,1.92 3.53,3.53 0 0 0 4.89,1.35 z m 12.77,-8.53 a 0.93,0.93 0 0 1 0.6,0.8 0.88,0.88 0 0 1 0,0.2 0.78,0.78 0 0 1 -0.8,0.64 h -0.3 a 7.21,7.21 0 0 0 -1.3,-0.14 3.78,3.78 0 0 0 -2.32,0.66 2.1,2.1 0 0 0 -0.88,1.78 v 5.84 a 0.89,0.89 0 0 1 -1,1 1,1 0 0 1 -0.74,-0.25 1,1 0 0 1 -0.26,-0.75 v -8.94 a 1,1 0 0 1 0.26,-0.74 1,1 0 0 1 0.74,-0.26 0.88,0.88 0 0 1 1,1 v 0.38 a 4.07,4.07 0 0 1 1.48,-1.1 4.44,4.44 0 0 1 1.88,-0.4 3.47,3.47 0 0 1 1.64,0.28 z m 8.65,0.45 a 5.35,5.35 0 0 1 2,2 5.53,5.53 0 0 1 0.73,2.83 v 4.46 a 1,1 0 0 1 -0.29,0.73 1.06,1.06 0 0 1 -1.46,0 1,1 0 0 1 -0.29,-0.73 v -0.74 a 4.92,4.92 0 0 1 -3.86,1.82 4.88,4.88 0 0 1 -2.61,-0.72 5.12,5.12 0 0 1 -1.84,-2 5.94,5.94 0 0 1 -0.67,-2.83 5.62,5.62 0 0 1 0.72,-2.83 5.17,5.17 0 0 1 2,-2 5.5,5.5 0 0 1 2.81,-0.73 5.38,5.38 0 0 1 2.76,0.74 z m -1,8.08 a 3.56,3.56 0 0 0 1.27,-1.34 4.22,4.22 0 0 0 0,-3.83 3.5,3.5 0 0 0 -6.17,0 4.14,4.14 0 0 0 0,3.83 3.58,3.58 0 0 0 1.28,1.34 3.59,3.59 0 0 0 3.62,0 z m 12.77,-8.53 a 0.93,0.93 0 0 1 0.6,0.8 0.88,0.88 0 0 1 0,0.2 0.78,0.78 0 0 1 -0.8,0.64 h -0.3 a 7.21,7.21 0 0 0 -1.3,-0.14 3.78,3.78 0 0 0 -2.32,0.66 2.1,2.1 0 0 0 -0.88,1.78 v 5.84 a 0.89,0.89 0 0 1 -1,1 1,1 0 0 1 -0.74,-0.25 1,1 0 0 1 -0.26,-0.75 v -8.94 a 1,1 0 0 1 0.26,-0.74 1,1 0 0 1 0.74,-0.26 0.88,0.88 0 0 1 1,1 v 0.38 a 4.07,4.07 0 0 1 1.48,-1.1 4.44,4.44 0 0 1 1.88,-0.4 3.47,3.47 0 0 1 1.64,0.28 z"
       id="path6" />
    <path
       class="cls-1"
       d="m 310.16,218.1 a 1.29,1.29 0 0 1 -0.12,0.48 l -6.12,13.76 a 0.82,0.82 0 0 1 -0.78,0.62 1.29,1.29 0 0 1 -0.48,-0.12 0.85,0.85 0 0 1 -0.6,-0.78 1.07,1.07 0 0 1 0.12,-0.48 l 2,-4.5 -4.5,-8.54 a 0.82,0.82 0 0 1 -0.1,-0.42 0.75,0.75 0 0 1 0.16,-0.48 1.07,1.07 0 0 1 0.42,-0.34 0.87,0.87 0 0 1 0.4,-0.08 0.89,0.89 0 0 1 0.84,0.56 l 3.66,7.28 3.22,-7.26 a 0.83,0.83 0 0 1 0.78,-0.58 1.12,1.12 0 0 1 0.48,0.1 0.82,0.82 0 0 1 0.62,0.78 z"
       id="path8" />
    <path
       class="cls-2"
       d="m 139.26,91.18 h -27.63 c -2.86,0 -4.88,-1.82 -4.95,-4.4 -0.06,-2.77 1.61,-4.38 4.81,-4.39 h 55.79 c 3.17,0 4.87,1.64 4.81,4.38 -0.05,2.57 -2.09,4.41 -4.94,4.41 z m -15.69,3.7 h 28.72 c 2.77,0 4.64,1.74 4.71,4.31 0.07,2.57 -1.56,4.26 -4.43,4.26 q -29,0.06 -58,0 c -2.88,0 -4.55,-1.66 -4.53,-4.17 0,-3 1.5,-4.39 4.79,-4.4 z m -9.8,12.89 h 26 c 3.45,0 5.45,1.68 5.41,4.51 0,2.68 -2,4.35 -5.32,4.35 H 87.27 c -3.3,0 -5.26,-1.72 -5.27,-4.4 -0.01,-2.68 2,-4.46 5.44,-4.46 z M 116,129.56 H 99.09 c -3.08,0 -5,-1.7 -5,-4.32 0,-2.62 1.76,-4.19 5,-4.2 h 34.09 c 3.1,0 5.22,1.79 5.13,4.2 -0.1,2.59 -2.11,4.31 -5.13,4.32 -5.72,0.01 -11.45,0 -17.18,0 z m 5.91,12.61 h -9.65 c -2.85,0 -4.33,-1.55 -4.35,-4.26 -0.02,-2.71 1.46,-4.21 4.37,-4.23 q 9.51,-0.07 19,0 c 2.76,0 4.55,1.79 4.47,4.22 a 4.36,4.36 0 0 1 -4.49,4.27 c -3.09,0.03 -6.26,0 -9.35,0 z m 2.15,12.83 c -2.79,-0.07 -5.57,-1.61 -5.57,-4.45 0,-3.34 2.82,-4.46 5.48,-4.42 h 6.95 a 4.2,4.2 0 0 1 4,4.34 4.26,4.26 0 0 1 -4.22,4.53 z m 11.14,3.39 a 3.68,3.68 0 0 1 3.73,3.94 c 0,2.35 -1.39,4.42 -4,4.42 h -5.07 a 4.13,4.13 0 0 1 -4.23,-4.16 4.05,4.05 0 0 1 4.42,-4.3 z"
       id="path10" />
    <circle
       class="cls-2"
       cx="139.57001"
       cy="173.17999"
       r="4.25"
       id="circle12" />
    <path
       class="cls-3"
       d="m 289.18,47.33 a 21.26,21.26 0 1 0 21.26,21.26 21.26,21.26 0 0 0 -21.26,-21.26 z m 9.49,24 h -6.79 v 5.68 a 12.07,12.07 0 0 1 -0.17,2.33 2.42,2.42 0 0 1 -2.62,2 2.33,2.33 0 0 1 -2.51,-2.14 c -0.17,-1.74 -0.15,-3.49 -0.2,-5.24 V 71.3 h -6.56 c -2.09,0 -3.33,-0.89 -3.38,-2.63 -0.05,-1.74 1,-2.75 3.38,-2.8 1.63,0 5.07,-0.08 6.65,-0.08 0,-1.69 -0.13,-4.94 -0.08,-6.63 0.08,-2.14 1.1,-3.32 2.79,-3.33 1.69,-0.01 2.66,1.16 2.7,3.36 0,1.51 0,6.2 -0.08,6.74 1.35,-0.05 5.45,-0.1 7,0 2,0.07 3.16,1.16 3.13,2.77 -0.03,1.61 -1.29,2.58 -3.26,2.6 z m 4.42,85.81 a 2.5,2.5 0 0 1 -2.5,-2.5 v -34.56 a 2.5,2.5 0 1 1 5,0 v 34.56 a 2.5,2.5 0 0 1 -2.5,2.5 z m -12.91,16.25 a 2.5,2.5 0 0 1 -2.5,-2.5 v -66.67 a 2.5,2.5 0 1 1 5,0 v 66.67 a 2.5,2.5 0 0 1 -2.5,2.5 z"
       id="path14" />
    <path
       class="cls-2"
       d="m 260.93,138.47 a 14.54,14.54 0 0 0 -5,-4.44 16.88,16.88 0 0 0 3.1,-2.79 10.76,10.76 0 0 0 2.63,-7.2 13.55,13.55 0 0 0 -2.05,-7.29 14.44,14.44 0 0 0 -5.57,-5.13 16.21,16.21 0 0 0 -7.71,-1.86 18.18,18.18 0 0 0 -8.34,1.91 15.26,15.26 0 0 0 -6,5.35 13.89,13.89 0 0 0 -2.23,7.67 5.05,5.05 0 0 0 1.28,3.5 4.52,4.52 0 0 0 6.84,-0.11 5.44,5.44 0 0 0 1.24,-3.59 4.4,4.4 0 0 1 0.88,-2.66 7.08,7.08 0 0 1 2.64,-2.1 8.83,8.83 0 0 1 3.82,-0.81 6,6 0 0 1 4.21,1.5 4.73,4.73 0 0 1 1.56,3.62 4.81,4.81 0 0 1 -0.8,2.67 6.25,6.25 0 0 1 -2.21,2 5.74,5.74 0 0 1 -2.76,0.74 4.92,4.92 0 0 0 -5,5 5,5 0 0 0 1.42,3.58 4.82,4.82 0 0 0 3.59,1.49 6.85,6.85 0 0 1 3.66,1 7.27,7.27 0 0 1 2.63,2.88 8.92,8.92 0 0 1 1,4.16 7,7 0 0 1 -2.07,5.43 8.31,8.31 0 0 1 -5.85,2 9,9 0 0 1 -4.44,-1.12 8.52,8.52 0 0 1 -3.15,-3 7.73,7.73 0 0 1 -1.12,-4.06 5.23,5.23 0 0 0 -1.26,-3.51 4.53,4.53 0 0 0 -6.84,0 5.16,5.16 0 0 0 -1.26,3.51 16.79,16.79 0 0 0 2.4,8.87 17,17 0 0 0 6.61,6.23 19.78,19.78 0 0 0 9.45,2.25 18.25,18.25 0 0 0 8.66,-2.12 16.76,16.76 0 0 0 6.4,-5.9 15.53,15.53 0 0 0 2.42,-8.48 15.85,15.85 0 0 0 -2.78,-9.19 z m -46.69,29.11 h -29.91 v -55 a 4.82,4.82 0 0 0 -4.87,-4.87 4.6,4.6 0 0 0 -3.38,1.41 4.71,4.71 0 0 0 -1.4,3.46 v 59.87 a 4.78,4.78 0 0 0 1.32,3.45 4.58,4.58 0 0 0 3.43,1.41 h 34.78 a 4.87,4.87 0 1 0 0,-9.73 z"
       id="path16" />
    <path
       class="cls-3"
       d="m 280,99.94 a 8.21,8.21 0 0 0 -1,-3.8 11.65,11.65 0 0 1 -1.17,-3.45 v -0.25 l -0.23,-0.11 a 26.54,26.54 0 0 1 -7,-5 l -0.19,-0.19 -0.26,0.05 a 1.42,1.42 0 0 1 -0.34,0 h -47.99 c -1.2,0 -2.07,0 -2.84,0.8 a 3.17,3.17 0 0 0 0,4.08 4.29,4.29 0 0 0 3.13,0.87 h 0.36 l 47.52,-0.07 a 6,6 0 0 1 2.34,0.53 6.17,6.17 0 0 1 0.44,2.28 c -2.46,0 -27.38,0.06 -44.44,0.06 h -6.7 a 5.62,5.62 0 0 1 -5.63,-4.68 7.34,7.34 0 0 1 0.7,-4.81 4.41,4.41 0 0 1 3.3,-1.84 h 48 l -0.54,-0.78 A 27.14,27.14 0 0 1 264.86,79 l -0.13,-0.31 h -43.71 c -6.25,0 -10.79,5.07 -10.79,12 v 72.94 h 4 a 9.45,9.45 0 0 1 1.61,0.14 V 100.4 a 21.67,21.67 0 0 0 7.57,1.15 c 1.13,0 2.25,0 3.35,-0.09 1.1,-0.09 2.3,-0.09 3.45,-0.09 h 0.2 c 5.25,0 11.06,0.07 18.29,0.07 h 25.66 v 71.15 H 223.1 a 8.78,8.78 0 0 1 -2.17,5.75 h 54.95 c 3.33,0 4.19,-0.86 4.19,-4.19 v -9.54 c 0.01,-21.19 0.01,-43.08 -0.07,-64.67 z"
       id="path18" />
  </g>
</svg>
